<svg xmlns="http://www.w3.org/2000/svg" viewBox="0 0 478 100" fill="currentColor">
  <!-- A -->
  <path d="M0 100L36.5 0h15L88 100H72L62 72H26L16 100H0zM30.5 58h27L44 12 30.5 58z"/>
  <!-- r -->
  <path d="M96 100V30h14v14c4-10 12-16 24-16v15h-4c-14 0-20 7-20 22v35H96z"/>
  <!-- c -->
  <path d="M180 101c-22 0-37-16-37-37s15-36 37-36c14 0 25 7 30 18l-13 6c-3-7-9-11-17-11-14 0-23 10-23 23s9 24 23 24c8 0 14-4 17-12l13 6c-5 12-16 19-30 19z"/>
  <!-- a -->
  <path d="M258 100c-20 0-33-10-33-26 0-17 14-25 36-27l18-2v-3c0-10-6-15-17-15-10 0-17 5-19 13l-13-5c4-13 16-21 33-21 21 0 31 11 31 30v56h-14V88c-5 9-14 13-25 13zm3-12c13 0 22-9 22-21v-6l-16 2c-15 2-22 6-22 15 0 7 6 10 16 10z"/>
  <!-- n -->
  <path d="M300 100V30h14v13c5-10 15-16 27-16 19 0 29 12 29 32v41h-14V62c0-14-6-21-18-21-14 0-24 10-24 26v33H300z"/>
  <!-- a -->
  <path d="M424 100c-20 0-33-10-33-26 0-17 14-25 36-27l18-2v-3c0-10-6-15-17-15-10 0-17 5-19 13l-13-5c4-13 16-21 33-21 21 0 31 11 31 30v56h-14V88c-5 9-14 13-25 13zm3-12c13 0 22-9 22-21v-6l-16 2c-15 2-22 6-22 15 0 7 6 10 16 10z"/>
</svg>
